<svg width="38" height="20" viewBox="0 0 38 20" fill="none" xmlns="http://www.w3.org/2000/svg">
<path d="M0 6.4C0 4.15979 0 3.03969 0.435974 2.18404C0.819467 1.43139 1.43139 0.819467 2.18404 0.435974C3.03969 0 4.15979 0 6.4 0H31.6C33.8402 0 34.9603 0 35.816 0.435974C36.5686 0.819467 37.1805 1.43139 37.564 2.18404C38 3.03969 38 4.15979 38 6.4V13.6C38 15.8402 38 16.9603 37.564 17.816C37.1805 18.5686 36.5686 19.1805 35.816 19.564C34.9603 20 33.8402 20 31.6 20H6.4C4.15979 20 3.03969 20 2.18404 19.564C1.43139 19.1805 0.819467 18.5686 0.435974 17.816C0 16.9603 0 15.8402 0 13.6V6.4Z" fill="#64BD38"/>
<path d="M12.5249 15H11.2935L6.22168 7.21143H6.1709C6.23861 8.12549 6.27246 8.96338 6.27246 9.7251L6.27246 15H5.27588L5.27588 5.71973L6.49463 5.71973L11.5537 13.4766H11.6045C11.596 13.3623 11.577 12.9963 11.5474 12.3784C11.5177 11.7563 11.5072 11.312 11.5156 11.0454L11.5156 5.71973H12.5249L12.5249 15ZM20.25 15H15.0767L15.0767 5.71973L20.25 5.71973V6.67822L16.1558 6.67822V9.66797H20.0024V10.6201H16.1558L16.1558 14.0352H20.25V15ZM30.4126 15L29.3462 15L27.4736 8.78564C27.3848 8.51058 27.2853 8.16357 27.1753 7.74463C27.0653 7.32568 27.0081 7.07389 27.0039 6.98926C26.9108 7.54785 26.7627 8.15934 26.5596 8.82373L24.7441 15H23.6777L21.2085 5.71973H22.3511L23.8174 11.4517C24.0205 12.2557 24.1686 12.9836 24.2617 13.6353C24.376 12.8608 24.5452 12.1034 24.7695 11.3628L26.4326 5.71973L27.5752 5.71973L29.3208 11.4136C29.5239 12.0695 29.6953 12.8101 29.835 13.6353C29.9154 13.0343 30.0677 12.3022 30.292 11.439L31.752 5.71973H32.8945L30.4126 15Z" fill="white"/>
</svg>
